<?xml version="1.0" encoding="UTF-8"?>
<svg fill="none" viewBox="0 0 32 32" xmlns="http://www.w3.org/2000/svg">
<path d="m16 2c-7.7 0-14 6.3-14 14s6.3 14 14 14 14-6.3 14-14-6.3-14-14-14zm-5.135 17.5c-0.7015 0.0227-1.3936-0.166-1.9865-0.5417-0.59287-0.3757-1.0591-0.9209-1.3382-1.565-0.27905-0.644-0.35802-1.357-0.22666-2.0465s0.46698-1.3235 0.96329-1.8198c0.4963-0.4963 1.1304-0.832 1.8198-0.9633 0.6895-0.1314 1.4025-0.0524 2.0465 0.2266 0.6441 0.2791 1.1893 0.7453 1.565 1.3382s0.5644 1.285 0.5417 1.9865c-0.0287 0.8886-0.3946 1.733-1.0233 2.3617s-1.4731 0.9946-2.3617 1.0233zm10.5 0c-0.7015 0.0227-1.3936-0.166-1.9865-0.5417s-1.0591-0.9209-1.3382-1.565c-0.279-0.644-0.358-1.357-0.2266-2.0465 0.1313-0.6895 0.467-1.3235 0.9633-1.8198s1.1303-0.832 1.8198-0.9633c0.6895-0.1314 1.4025-0.0524 2.0465 0.2266 0.6441 0.2791 1.1893 0.7453 1.565 1.3382s0.5644 1.285 0.5417 1.9865c-0.0287 0.8886-0.3946 1.733-1.0233 2.3617s-1.4731 0.9946-2.3617 1.0233z" fill="#C5D5FE"/>
</svg>
