<svg width="32" height="32" viewBox="0 0 32 32" fill="none" xmlns="http://www.w3.org/2000/svg">
<path d="M15.6401 1.64062C7.90805 1.64062 1.64014 7.90854 1.64014 15.6406C1.64014 23.3727 7.90805 29.6406 15.6401 29.6406C23.3722 29.6406 29.6401 23.3727 29.6401 15.6406C29.6401 7.90854 23.3722 1.64062 15.6401 1.64062ZM12.2131 21.4433H9.37805V12.32H12.2131V21.4433ZM10.7781 11.2C9.88264 11.2 9.30368 10.5656 9.30368 9.78104C9.30368 8.98042 9.90014 8.365 10.8145 8.365C11.7289 8.365 12.2889 8.98042 12.3064 9.78104C12.3064 10.5656 11.7289 11.2 10.7781 11.2ZM22.5672 21.4433H19.7322V16.3873C19.7322 15.2104 19.321 14.4112 18.2958 14.4112C17.5126 14.4112 17.0474 14.9523 16.8418 15.4729C16.766 15.6581 16.747 15.9206 16.747 16.1817V21.4419H13.9106V15.2294C13.9106 14.0904 13.8741 13.1381 13.8362 12.3185H16.2993L16.4291 13.5858H16.486C16.8593 12.9908 17.7737 12.1129 19.3035 12.1129C21.1687 12.1129 22.5672 13.3627 22.5672 16.049V21.4433Z" fill="#C5D5FE"/>
</svg>
