<?xml version="1.0" encoding="UTF-8"?>
<svg fill="none" viewBox="0 0 28 28" xmlns="http://www.w3.org/2000/svg">
<path d="m14 28c7.732 0 14-6.268 14-14 0-7.732-6.268-14-14-14-7.732 0-14 6.268-14 14 0 7.732 6.268 14 14 14zm2.1286-12.578c0.2813-0.421 0.4314-0.916 0.4314-1.4223-0.0021-0.6783-0.2725-1.3282-0.7521-1.8079-0.4797-0.4796-1.1296-0.75-1.8079-0.7521-0.5063 0-1.0013 0.1501-1.4223 0.4314-0.4209 0.2813-0.7491 0.6812-0.9428 1.1489-0.1938 0.4678-0.2445 0.9825-0.1457 1.4791s0.3426 0.9528 0.7006 1.3108 0.8142 0.6018 1.3108 0.7006 1.0113 0.0481 1.4791-0.1457c0.4677-0.1937 0.8676-0.5219 1.1489-0.9428zm5.8714 2.0977v-7.04c0-1.1882-0.472-2.3277-1.3122-3.1678-0.8401-0.84016-1.9796-1.3122-3.1678-1.3122h-7.04c-1.1882 0-2.3277 0.472-3.1678 1.3122s-1.3122 1.9797-1.3122 3.1678v7.04c0 1.1882 0.472 2.3277 1.3122 3.1678 0.84016 0.8402 1.9797 1.3122 3.1678 1.3122h7.04c1.1882 0 2.3277-0.472 3.1678-1.3122 0.8402-0.8401 1.3122-1.9796 1.3122-3.1678zm-4.8072-5.6534c0.422 0.6315 0.6472 1.3739 0.6472 2.1334 0 1.0184-0.4046 1.9952-1.1247 2.7153s-1.6969 1.1247-2.7153 1.1247c-0.7595 0-1.5019-0.2252-2.1334-0.6472-0.6315-0.4219-1.1237-1.0216-1.4143-1.7233s-0.3667-1.4738-0.2185-2.2186c0.1482-0.7449 0.5139-1.4292 1.0509-1.9662s1.2213-0.9027 1.9662-1.0509c0.7448-0.1482 1.5169-0.0721 2.2186 0.2185s1.3014 0.7828 1.7233 1.4143zm1.7654-2.56c0.1055 0.15787 0.1618 0.34348 0.1618 0.53335 0 0.2546-0.1011 0.4988-0.2812 0.6788-0.18 0.1801-0.4242 0.2812-0.6788 0.2812-0.1899 0-0.3755-0.0563-0.5333-0.1618-0.1579-0.1055-0.281-0.2554-0.3536-0.4308-0.0727-0.1754-0.0917-0.36847-0.0547-0.55469 0.0371-0.18622 0.1285-0.35727 0.2628-0.49153 0.1342-0.13426 0.3053-0.22569 0.4915-0.26273 0.1862-0.03705 0.3793-0.01804 0.5547 0.05463 0.1754 0.07266 0.3253 0.1957 0.4308 0.35357z" clip-rule="evenodd" fill="#C5D5FE" fill-rule="evenodd"/>
</svg>
