<?xml version="1.0" encoding="UTF-8"?>
<svg viewBox="0 0 271 49" xmlns="http://www.w3.org/2000/svg">
<path d="m66.6 37-0.192-1.248c1.1307-0.192 1.8133-0.4053 2.048-0.64 0.256-0.2347 0.384-0.6827 0.384-1.344v-15.712c0-0.6613-0.128-1.1093-0.384-1.344-0.2347-0.2347-0.9173-0.448-2.048-0.64l0.192-1.248h14.912c0.128 0.7893 0.192 1.5787 0.192 2.368 0 0.768-0.0213 1.6427-0.064 2.624l-1.824 0.224c-0.2987-1.472-0.512-2.3893-0.64-2.752-0.128-0.384-0.2773-0.5867-0.448-0.608-0.512-0.064-1.1627-0.1067-1.952-0.128l-4.832-0.096v8.608h4.8c0.2773 0 0.6187-0.7573 1.024-2.272l0.992 0.096c0 1.5573 0.0213 2.6453 0.064 3.264 0.064 0.6187 0.096 0.992 0.096 1.12 0.0213 0.128 0.064 0.4373 0.128 0.928 0.0853 0.4907 0.1387 0.832 0.16 1.024l-1.152 0.192c-0.3413-1.216-0.576-1.9627-0.704-2.24-0.1067-0.2773-0.2347-0.416-0.384-0.416h-5.024v8.608l2.848-0.032c2.4107 0 3.8827-0.128 4.416-0.384 0.064-0.0427 0.1067-0.064 0.128-0.064 0.3627-0.1067 0.832-1.3653 1.408-3.776l1.76 0.16c0.0213 0.3627 0.032 1.0133 0.032 1.952 0 0.9173-0.1173 2.176-0.352 3.776h-15.584zm18.842 0-0.192-1.248c1.0453-0.2133 1.6747-0.4267 1.888-0.64 0.2347-0.2347 0.352-0.6293 0.352-1.184v-9.216c0-0.5547-0.1387-0.9387-0.416-1.152-0.256-0.2347-0.928-0.4587-2.016-0.672l0.192-1.024 4.128-0.416c0.1493 0 0.2987 0.2987 0.448 0.896 0.1707 0.576 0.256 1.0987 0.256 1.568v0.192l0.224 0.096 0.32-0.416c0.5333-0.6827 1.2053-1.248 2.016-1.696 0.832-0.4693 1.7067-0.704 2.624-0.704 2.048 0 3.3493 0.9173 3.904 2.752l0.224 0.032 0.352-0.448c1.2165-1.5573 2.7415-2.336 4.5765-2.336 1.301 0 2.314 0.416 3.04 1.248 0.746 0.832 1.12 1.9733 1.12 3.424v8.64c0 0.256 0.053 0.4267 0.16 0.512 0.128 0.064 0.288 0.1173 0.48 0.16l1.568 0.384-0.128 1.248h-6.848l-0.192-1.248c0.96-0.192 1.546-0.4053 1.76-0.64 0.213-0.2347 0.32-0.6293 0.32-1.184v-7.264c0-1.984-0.8-2.976-2.4-2.976-0.832 0-1.878 0.416-3.136 1.248-0.2565 0.1493-0.4272 0.32-0.5125 0.512-0.0853 0.1707-0.128 0.4907-0.128 0.96v8.288c0 0.256 0.0533 0.4267 0.16 0.512 0.128 0.064 0.288 0.1173 0.4805 0.16l1.408 0.384-0.128 1.248h-6.6885l-0.192-1.248c0.96-0.192 1.5467-0.4053 1.76-0.64s0.32-0.6293 0.32-1.184v-7.264c0-1.984-0.8-2.976-2.4-2.976-0.832 0-1.8773 0.416-3.136 1.248-0.256 0.1493-0.4267 0.32-0.512 0.512-0.0853 0.1707-0.128 0.4907-0.128 0.96v8.288c0 0.256 0.0533 0.4267 0.16 0.512 0.128 0.064 0.288 0.1173 0.48 0.16l1.408 0.384-0.128 1.248h-6.848zm28.652-1.088v-20.576c0-0.448-0.171-0.768-0.512-0.96-0.342-0.2133-0.982-0.416-1.92-0.608l0.192-1.024c2.282-0.2987 3.872-0.448 4.768-0.448l0.352 0.32v8.992c0 1.1733-0.075 2.0053-0.224 2.496l0.256 0.096 0.32-0.416c1.237-1.6 2.72-2.4 4.448-2.4s3.146 0.6933 4.256 2.08c1.109 1.3653 1.664 3.2533 1.664 5.664s-0.64 4.3733-1.92 5.888c-1.259 1.5147-3.083 2.272-5.472 2.272-1.131 0-2.283-0.1493-3.456-0.448-1.174-0.2987-2.091-0.608-2.752-0.928zm2.88-1.6c0.917 0.768 2.069 1.152 3.456 1.152 1.408 0 2.357-0.288 2.848-0.864 0.384-0.4267 0.693-1.0987 0.928-2.016 0.256-0.9387 0.384-1.9733 0.384-3.104 0-1.8987-0.342-3.3387-1.024-4.32-0.683-0.9813-1.526-1.472-2.528-1.472-1.003 0-2.07 0.3733-3.2 1.12-0.363 0.2347-0.598 0.448-0.704 0.64-0.107 0.192-0.16 0.4587-0.16 0.8v8.064zm13.214-1.248c0-1.6 0.682-2.7947 2.048-3.584 1.365-0.7893 3.584-1.1947 6.656-1.216v-1.024c0-2.7733-1.003-4.16-3.008-4.16-0.96 0-1.568 0.1387-1.824 0.416-0.235 0.2773-0.491 1.184-0.768 2.72l-1.728-0.192c-0.171-0.6613-0.256-1.344-0.256-2.048 0-0.7253 0.01-1.1947 0.032-1.408 1.258-0.7893 2.912-1.184 4.96-1.184s3.466 0.3947 4.256 1.184c0.81 0.7893 1.216 2.0907 1.216 3.904v7.36c0 0.5547 0.128 0.9493 0.384 1.184 0.277 0.2133 0.96 0.4267 2.048 0.64l-0.192 1.024-3.84 0.416c-0.214 0-0.438-0.2027-0.672-0.608-0.235-0.4053-0.352-0.7787-0.352-1.12 0-0.3627 0.01-0.6293 0.032-0.8l-0.256-0.096-0.384 0.576c-1.003 1.4933-2.379 2.24-4.128 2.24-1.195 0-2.198-0.3733-3.008-1.12-0.811-0.7467-1.216-1.7813-1.216-3.104zm3.104-0.288c0 0.768 0.202 1.3547 0.608 1.76 0.405 0.384 0.981 0.576 1.728 0.576 0.746 0 1.589-0.3627 2.528-1.088 0.49-0.384 0.736-0.7893 0.736-1.216v-3.136c-1.92 0.0427-3.339 0.2987-4.256 0.768-0.896 0.4693-1.344 1.248-1.344 2.336zm19.095-9.696c-1.878 0-2.816 0.64-2.816 1.92 0 0.512 0.128 0.896 0.384 1.152 0.256 0.2347 0.437 0.416 0.544 0.544 0.128 0.1067 0.362 0.2453 0.704 0.416 0.341 0.1707 0.576 0.2987 0.704 0.384 0.149 0.064 0.437 0.1813 0.864 0.352 1.792 0.7467 3.05 1.4507 3.776 2.112 0.725 0.6613 1.088 1.6 1.088 2.816s-0.544 2.272-1.632 3.168c-1.067 0.896-2.539 1.344-4.416 1.344-0.832 0-1.696-0.0853-2.592-0.256s-1.547-0.3413-1.952-0.512c-0.043-0.2773-0.064-0.8427-0.064-1.696s0.096-1.7813 0.288-2.784l1.664-0.128c0.149 1.3653 0.256 2.208 0.32 2.528 0.085 0.2987 0.202 0.4907 0.352 0.576 0.682 0.384 1.578 0.576 2.688 0.576 1.728 0 2.592-0.6933 2.592-2.08 0-0.6613-0.256-1.2053-0.768-1.632-0.576-0.4693-1.238-0.864-1.984-1.184-1.963-0.8107-3.307-1.5467-4.032-2.208-0.704-0.6827-1.056-1.6213-1.056-2.816s0.544-2.208 1.632-3.04 2.4-1.248 3.936-1.248 2.944 0.2667 4.224 0.8c0.021 0.1707 0.032 0.6507 0.032 1.44s-0.139 1.6213-0.416 2.496l-1.472 0.16c-0.15-1.664-0.395-2.6133-0.736-2.848-0.32-0.2347-0.939-0.352-1.856-0.352zm13.969 0c-1.878 0-2.816 0.64-2.816 1.92 0 0.512 0.128 0.896 0.384 1.152 0.256 0.2347 0.437 0.416 0.544 0.544 0.128 0.1067 0.362 0.2453 0.704 0.416 0.341 0.1707 0.576 0.2987 0.704 0.384 0.149 0.064 0.437 0.1813 0.864 0.352 1.792 0.7467 3.05 1.4507 3.776 2.112 0.725 0.6613 1.088 1.6 1.088 2.816s-0.544 2.272-1.632 3.168c-1.067 0.896-2.539 1.344-4.416 1.344-0.832 0-1.696-0.0853-2.592-0.256s-1.547-0.3413-1.952-0.512c-0.043-0.2773-0.064-0.8427-0.064-1.696s0.096-1.7813 0.288-2.784l1.664-0.128c0.149 1.3653 0.256 2.208 0.32 2.528 0.085 0.2987 0.202 0.4907 0.352 0.576 0.682 0.384 1.578 0.576 2.688 0.576 1.728 0 2.592-0.6933 2.592-2.08 0-0.6613-0.256-1.2053-0.768-1.632-0.576-0.4693-1.238-0.864-1.984-1.184-1.963-0.8107-3.307-1.5467-4.032-2.208-0.704-0.6827-1.056-1.6213-1.056-2.816s0.544-2.208 1.632-3.04 2.4-1.248 3.936-1.248 2.944 0.2667 4.224 0.8c0.021 0.1707 0.032 0.6507 0.032 1.44s-0.139 1.6213-0.416 2.496l-1.472 0.16c-0.15-1.664-0.395-2.6133-0.736-2.848-0.32-0.2347-0.939-0.352-1.856-0.352zm7.728 17.664c0.512 0.064 1.216 0.096 2.112 0.096 0.918 0 1.643-0.1173 2.176-0.352 0.534-0.2133 1.174-1.376 1.92-3.488l-5.312-12.736c-0.17-0.4053-0.33-0.6613-0.48-0.768-0.128-0.1067-0.533-0.2347-1.216-0.384l0.192-1.248h6.592l0.128 1.248-1.952 0.48c-0.149 0.0213-0.224 0.1067-0.224 0.256 0 0.0213 0.043 0.16 0.128 0.416l3.264 8.544c0.107 0.2987 0.16 0.6293 0.16 0.992h0.256l3.392-8.8c0.128-0.3413 0.192-0.6187 0.192-0.832 0-0.2347-0.16-0.4267-0.48-0.576-0.298-0.1493-0.842-0.3093-1.632-0.48l0.192-1.248h5.696l0.128 1.248c-0.938 0.2133-1.44 0.3947-1.504 0.544l-5.056 12.544c-0.426 1.0667-0.768 1.8773-1.024 2.432-0.256 0.576-0.608 1.216-1.056 1.92s-0.917 1.248-1.408 1.632c-1.216 0.9173-2.688 1.5253-4.416 1.824-0.554-0.5547-0.832-1.4293-0.832-2.624 0-0.128 0.022-0.3413 0.064-0.64zm16.672-3.744-0.192-1.248c1.131-0.192 1.814-0.4053 2.048-0.64 0.256-0.2347 0.384-0.6827 0.384-1.344v-15.712c0-0.6613-0.128-1.1093-0.384-1.344-0.234-0.2347-0.917-0.448-2.048-0.64l0.192-1.248h8.928c2.262 0 3.958 0.5547 5.088 1.664 1.131 1.088 1.696 2.6347 1.696 4.64s-0.746 3.7227-2.24 5.152c-1.472 1.4293-3.626 2.144-6.464 2.144h-1.664v6.112c0 0.512 0.214 0.7893 0.64 0.832l3.232 0.384-0.128 1.248h-9.088zm5.344-10.272h1.408c1.408 0 2.635-0.3307 3.68-0.992 1.238-0.7893 1.856-2.24 1.856-4.352 0-1.9627-0.512-3.296-1.536-4-0.853-0.576-1.781-0.864-2.784-0.864h-1.984c-0.426 0-0.64 0.256-0.64 0.768v9.44zm12.275 6.336c0-1.6 0.683-2.7947 2.048-3.584 1.366-0.7893 3.584-1.1947 6.656-1.216v-1.024c0-2.7733-1.002-4.16-3.008-4.16-0.96 0-1.568 0.1387-1.824 0.416-0.234 0.2773-0.49 1.184-0.768 2.72l-1.728-0.192c-0.17-0.6613-0.256-1.344-0.256-2.048 0-0.7253 0.011-1.1947 0.032-1.408 1.259-0.7893 2.912-1.184 4.96-1.184s3.467 0.3947 4.256 1.184c0.811 0.7893 1.216 2.0907 1.216 3.904v7.36c0 0.5547 0.128 0.9493 0.384 1.184 0.278 0.2133 0.96 0.4267 2.048 0.64l-0.192 1.024-3.84 0.416c-0.213 0-0.437-0.2027-0.672-0.608-0.234-0.4053-0.352-0.7787-0.352-1.12 0-0.3627 0.011-0.6293 0.032-0.8l-0.256-0.096-0.384 0.576c-1.002 1.4933-2.378 2.24-4.128 2.24-1.194 0-2.197-0.3733-3.008-1.12-0.81-0.7467-1.216-1.7813-1.216-3.104zm3.104-0.288c0 0.768 0.203 1.3547 0.608 1.76 0.406 0.384 0.982 0.576 1.728 0.576 0.747 0 1.59-0.3627 2.528-1.088 0.491-0.384 0.736-0.7893 0.736-1.216v-3.136c-1.92 0.0427-3.338 0.2987-4.256 0.768-0.896 0.4693-1.344 1.248-1.344 2.336zm17.047 4.992c-0.597 0.6613-0.896 1.376-0.896 2.144s0.32 1.376 0.96 1.824 1.728 0.672 3.264 0.672c1.558 0 2.763-0.32 3.616-0.96 0.854-0.64 1.28-1.28 1.28-1.92s-0.352-1.0347-1.056-1.184c-0.704-0.128-1.824-0.2027-3.36-0.224-1.514-0.0213-2.784-0.1387-3.808-0.352zm-2.752-2.72c0-0.8533 0.32-1.6747 0.96-2.464 0.448-0.5547 0.96-1.056 1.536-1.504-0.32-0.1493-0.618-0.3307-0.896-0.544-1.066-0.8533-1.6-2.1333-1.6-3.84 0-1.728 0.587-3.04 1.76-3.936 1.174-0.9173 2.635-1.376 4.384-1.376 1.558 0 2.848 0.3307 3.872 0.992 1.387-0.6613 2.731-1.0133 4.032-1.056 0.214 0.3627 0.32 0.8 0.32 1.312 0 0.4907-0.032 0.832-0.096 1.024-0.725-0.1707-1.482-0.256-2.272-0.256h-0.864c0.598 0.8107 0.896 1.856 0.896 3.136 0 1.7067-0.586 3.0187-1.76 3.936-1.173 0.896-2.634 1.344-4.384 1.344-0.981 0-1.845-0.128-2.592-0.384-0.64 0.768-0.96 1.504-0.96 2.208 0 0.64 0.363 1.024 1.088 1.152 0.64 0.1067 1.355 0.16 2.144 0.16 0.811 0 1.43 0.0107 1.856 0.032 0.448 0 1.014 0.032 1.696 0.096 0.683 0.064 1.216 0.1707 1.6 0.32 0.406 0.1493 0.822 0.3413 1.248 0.576 0.79 0.448 1.184 1.2373 1.184 2.368 0 1.536-0.768 2.8587-2.304 3.968-1.536 1.1307-3.605 1.696-6.208 1.696-3.498 0-5.248-1.0027-5.248-3.008 0-0.7253 0.203-1.3547 0.608-1.888 0.427-0.512 1.035-1.056 1.824-1.632-1.216-0.384-1.824-1.1947-1.824-2.432zm6.112-4.8c1.984 0 2.976-1.216 2.976-3.648s-1.056-3.648-3.168-3.648c-1.984 0-2.976 1.216-2.976 3.648s1.056 3.648 3.168 3.648zm17.111 7.04c-2.155 0-3.829-0.736-5.024-2.208-1.173-1.472-1.76-3.328-1.76-5.568 0-2.2613 0.683-4.1813 2.048-5.76s3.168-2.368 5.408-2.368c3.627 0 5.525 2.2293 5.696 6.688l-0.832 0.608-9.28 0.512c0 3.9467 1.685 5.92 5.056 5.92 1.472 0 2.912-0.3627 4.32-1.088l0.672 1.056c-0.704 0.576-1.621 1.088-2.752 1.536s-2.315 0.672-3.552 0.672zm-3.648-9.568 6.624-0.576c0.213-0.0213 0.32-0.224 0.32-0.608 0-0.9387-0.256-1.7493-0.768-2.432-0.491-0.6827-1.333-1.024-2.528-1.024s-2.069 0.4053-2.624 1.216c-0.533 0.7893-0.875 1.9307-1.024 3.424zm18.225-4.64c-1.877 0-2.816 0.64-2.816 1.92 0 0.512 0.128 0.896 0.384 1.152 0.256 0.2347 0.438 0.416 0.544 0.544 0.128 0.1067 0.363 0.2453 0.704 0.416 0.342 0.1707 0.576 0.2987 0.704 0.384 0.15 0.064 0.438 0.1813 0.864 0.352 1.792 0.7467 3.051 1.4507 3.776 2.112 0.726 0.6613 1.088 1.6 1.088 2.816s-0.544 2.272-1.632 3.168c-1.066 0.896-2.538 1.344-4.416 1.344-0.832 0-1.696-0.0853-2.592-0.256s-1.546-0.3413-1.952-0.512c-0.042-0.2773-0.064-0.8427-0.064-1.696s0.096-1.7813 0.288-2.784l1.664-0.128c0.15 1.3653 0.256 2.208 0.32 2.528 0.086 0.2987 0.203 0.4907 0.352 0.576 0.683 0.384 1.579 0.576 2.688 0.576 1.728 0 2.592-0.6933 2.592-2.08 0-0.6613-0.256-1.2053-0.768-1.632-0.576-0.4693-1.237-0.864-1.984-1.184-1.962-0.8107-3.306-1.5467-4.032-2.208-0.704-0.6827-1.056-1.6213-1.056-2.816s0.544-2.208 1.632-3.04 2.4-1.248 3.936-1.248 2.944 0.2667 4.224 0.8c0.022 0.1707 0.032 0.6507 0.032 1.44s-0.138 1.6213-0.416 2.496l-1.472 0.16c-0.149-1.664-0.394-2.6133-0.736-2.848-0.32-0.2347-0.938-0.352-1.856-0.352z" fill="#184290"/>
<path d="m22.263 47.667c-0.065 0.6734-0.6644 1.1698-1.3338 1.0712-4.9579-0.7304-9.5837-2.966-13.243-6.4188-3.6593-3.4528-6.1595-7.9411-7.1763-12.848-0.13727-0.6624 0.32345-1.2896 0.99196-1.3936 0.66851-0.104 1.2913 0.3547 1.4323 1.0164 0.93076 4.3697 3.17 8.3643 6.4335 11.444 3.2635 3.0794 7.3812 5.0831 11.798 5.7588 0.6688 0.1023 1.1628 0.6974 1.0978 1.3708z" fill="#184290"/>
<path d="m1.4964 20.956c-0.66866-0.103-1.1303-0.7295-0.99398-1.3922 1.0097-4.9089 3.5036-9.401 7.1581-12.859 3.6545-3.4581 8.2773-5.7004 13.234-6.4377 0.6692-0.099537 1.2693 0.39595 1.3353 1.0693 0.066 0.67333-0.4273 1.2692-1.0959 1.3724-4.4156 0.68188-8.5306 2.6915-11.79 5.7756-3.2593 3.0842-5.4928 7.0821-6.4173 11.453-0.13999 0.6619-0.76213 1.1215-1.4308 1.0185z" fill="#184290"/>
<path d="m27.054 1.3656c0.0743-0.67246 0.6804-1.1605 1.3483-1.0528 4.9323 0.79568 9.5144 3.0828 13.121 6.5679 3.607 3.4851 6.0503 7.9859 7.0151 12.888 0.1306 0.6638-0.3363 1.2864-1.0058 1.3837s-1.2877-0.3676-1.4221-1.0307c-0.8843-4.3652-3.0727-8.3709-6.2895-11.479-3.2169-3.1081-7.2954-5.1575-11.688-5.8912-0.6673-0.11146-1.1531-0.71331-1.0789-1.3858z" fill="#184290"/>
<path d="m47.456 28.339c0.6673 0.1116 1.1208 0.744 0.976 1.4049-1.0553 4.8166-3.5424 9.2131-7.1483 12.604s-8.1469 5.6034-13.019 6.361c-0.6685 0.104-1.2719-0.3875-1.3423-1.0604s0.4189-1.272 1.0868-1.3796c4.3392-0.6994 8.3808-2.682 11.596-5.7058 3.2154-3.0237 5.4424-6.9359 6.407-11.224 0.1484-0.66 0.7764-1.1116 1.4437-1z" fill="#184290"/>
<path d="m15.05 27-0.126-0.819c0.742-0.126 1.19-0.266 1.344-0.42 0.168-0.154 0.252-0.448 0.252-0.882v-10.311c0-0.434-0.084-0.728-0.252-0.882-0.154-0.154-0.602-0.294-1.344-0.42l0.126-0.819h9.786c0.084 0.518 0.126 1.036 0.126 1.554 0 0.504-0.014 1.078-0.042 1.722l-1.197 0.147c-0.196-0.966-0.336-1.568-0.42-1.806-0.084-0.252-0.182-0.385-0.294-0.399-0.336-0.042-0.763-0.07-1.281-0.084l-3.171-0.063v5.649h3.15c0.182 0 0.406-0.497 0.672-1.491l0.651 0.063c0 1.022 0.014 1.736 0.042 2.142 0.042 0.406 0.063 0.651 0.063 0.735 0.014 0.084 0.042 0.287 0.084 0.609 0.056 0.322 0.091 0.546 0.105 0.672l-0.756 0.126c-0.224-0.798-0.378-1.288-0.462-1.47-0.07-0.182-0.154-0.273-0.252-0.273h-3.297v5.649l1.869-0.021c1.582 0 2.548-0.084 2.898-0.252 0.042-0.028 0.07-0.042 0.084-0.042 0.238-0.07 0.546-0.896 0.924-2.478l1.155 0.105c0.014 0.238 0.021 0.665 0.021 1.281 0 0.602-0.077 1.428-0.231 2.478h-10.227z" fill="#184290"/>
<path d="m23.05 36-0.126-0.819c0.742-0.126 1.19-0.266 1.344-0.42 0.168-0.154 0.252-0.448 0.252-0.882v-10.311c0-0.434-0.084-0.728-0.252-0.882-0.154-0.154-0.602-0.294-1.344-0.42l0.126-0.819h5.859c1.484 0 2.597 0.364 3.339 1.092 0.742 0.714 1.113 1.729 1.113 3.045s-0.49 2.443-1.47 3.381c-0.966 0.938-2.38 1.407-4.242 1.407h-1.092v4.011c0 0.336 0.14 0.518 0.42 0.546l2.121 0.252-0.084 0.819h-5.964zm3.507-6.741h0.924c0.924 0 1.729-0.217 2.415-0.651 0.812-0.518 1.218-1.47 1.218-2.856 0-1.288-0.336-2.163-1.008-2.625-0.56-0.378-1.169-0.567-1.827-0.567h-1.302c-0.28 0-0.42 0.168-0.42 0.504v6.195z" fill="#184290"/>
</svg>
