<?xml version="1.0" encoding="UTF-8"?>
<svg viewBox="0 0 49 49" xmlns="http://www.w3.org/2000/svg">
<path d="m22.263 47.667c-0.065 0.6734-0.6644 1.1698-1.3338 1.0712-4.9579-0.7304-9.5837-2.966-13.243-6.4188-3.6593-3.4528-6.1595-7.9411-7.1763-12.848-0.13727-0.6624 0.32345-1.2896 0.99196-1.3936 0.66851-0.104 1.2913 0.3547 1.4323 1.0164 0.93076 4.3697 3.17 8.3643 6.4335 11.444 3.2635 3.0794 7.3812 5.0831 11.798 5.7588 0.6688 0.1023 1.1628 0.6974 1.0978 1.3708z" fill="#184290"/>
<path d="m1.4964 20.956c-0.66866-0.103-1.1303-0.7295-0.99398-1.3922 1.0097-4.9089 3.5036-9.401 7.1581-12.859 3.6545-3.4581 8.2773-5.7004 13.234-6.4377 0.6692-0.099537 1.2693 0.39595 1.3353 1.0693 0.066 0.67333-0.4273 1.2692-1.0959 1.3724-4.4156 0.68188-8.5306 2.6915-11.79 5.7756-3.2593 3.0842-5.4928 7.0821-6.4173 11.453-0.13999 0.6619-0.76213 1.1215-1.4308 1.0185z" fill="#184290"/>
<path d="m27.054 1.3656c0.0743-0.67246 0.6804-1.1605 1.3483-1.0528 4.9323 0.79568 9.5144 3.0828 13.121 6.5679 3.607 3.4851 6.0503 7.9859 7.0151 12.888 0.1306 0.6638-0.3363 1.2864-1.0058 1.3837s-1.2877-0.3676-1.4221-1.0307c-0.8843-4.3652-3.0727-8.3709-6.2895-11.479-3.2169-3.1081-7.2954-5.1575-11.688-5.8912-0.6673-0.11146-1.1531-0.71331-1.0789-1.3858z" fill="#184290"/>
<path d="m47.456 28.339c0.6673 0.1116 1.1208 0.744 0.976 1.4049-1.0553 4.8166-3.5424 9.2131-7.1483 12.604s-8.1469 5.6034-13.019 6.361c-0.6685 0.104-1.2719-0.3875-1.3423-1.0604s0.4189-1.272 1.0868-1.3796c4.3392-0.6994 8.3808-2.682 11.596-5.7058 3.2154-3.0237 5.4424-6.9359 6.407-11.224 0.1484-0.66 0.7764-1.1116 1.4437-1z" fill="#184290"/>
<path d="m15.05 27-0.126-0.819c0.742-0.126 1.19-0.266 1.344-0.42 0.168-0.154 0.252-0.448 0.252-0.882v-10.311c0-0.434-0.084-0.728-0.252-0.882-0.154-0.154-0.602-0.294-1.344-0.42l0.126-0.819h9.786c0.084 0.518 0.126 1.036 0.126 1.554 0 0.504-0.014 1.078-0.042 1.722l-1.197 0.147c-0.196-0.966-0.336-1.568-0.42-1.806-0.084-0.252-0.182-0.385-0.294-0.399-0.336-0.042-0.763-0.07-1.281-0.084l-3.171-0.063v5.649h3.15c0.182 0 0.406-0.497 0.672-1.491l0.651 0.063c0 1.022 0.014 1.736 0.042 2.142 0.042 0.406 0.063 0.651 0.063 0.735 0.014 0.084 0.042 0.287 0.084 0.609 0.056 0.322 0.091 0.546 0.105 0.672l-0.756 0.126c-0.224-0.798-0.378-1.288-0.462-1.47-0.07-0.182-0.154-0.273-0.252-0.273h-3.297v5.649l1.869-0.021c1.582 0 2.548-0.084 2.898-0.252 0.042-0.028 0.07-0.042 0.084-0.042 0.238-0.07 0.546-0.896 0.924-2.478l1.155 0.105c0.014 0.238 0.021 0.665 0.021 1.281 0 0.602-0.077 1.428-0.231 2.478h-10.227z" fill="#184290"/>
<path d="m23.05 36-0.126-0.819c0.742-0.126 1.19-0.266 1.344-0.42 0.168-0.154 0.252-0.448 0.252-0.882v-10.311c0-0.434-0.084-0.728-0.252-0.882-0.154-0.154-0.602-0.294-1.344-0.42l0.126-0.819h5.859c1.484 0 2.597 0.364 3.339 1.092 0.742 0.714 1.113 1.729 1.113 3.045s-0.49 2.443-1.47 3.381c-0.966 0.938-2.38 1.407-4.242 1.407h-1.092v4.011c0 0.336 0.14 0.518 0.42 0.546l2.121 0.252-0.084 0.819h-5.964zm3.507-6.741h0.924c0.924 0 1.729-0.217 2.415-0.651 0.812-0.518 1.218-1.47 1.218-2.856 0-1.288-0.336-2.163-1.008-2.625-0.56-0.378-1.169-0.567-1.827-0.567h-1.302c-0.28 0-0.42 0.168-0.42 0.504v6.195z" fill="#184290"/>
</svg>
