<svg width="24" height="24" viewBox="0 0 24 24" fill="none" xmlns="http://www.w3.org/2000/svg">
<path d="M13 14.9993V6.99933M13 14.9993L18.504 18.1443C18.6561 18.2312 18.8283 18.2766 19.0034 18.276C19.1785 18.2754 19.3504 18.2288 19.5019 18.141C19.6533 18.0531 19.7791 17.927 19.8665 17.7752C19.9539 17.6235 19.9999 17.4515 20 17.2763V4.72233C19.9999 4.54722 19.9539 4.37518 19.8665 4.22345C19.7791 4.07171 19.6533 3.94559 19.5019 3.85771C19.3504 3.76982 19.1785 3.72325 19.0034 3.72266C18.8283 3.72207 18.6561 3.76748 18.504 3.85433L13 6.99933M13 14.9993H10M13 6.99933H7C5.93913 6.99933 4.92172 7.42076 4.17157 8.17091C3.42143 8.92105 3 9.93847 3 10.9993V10.9993C3 12.0602 3.42143 13.0776 4.17157 13.8278C4.92172 14.5779 5.93913 14.9993 7 14.9993M7 14.9993V19.4993C7 19.8972 7.15804 20.2787 7.43934 20.56C7.72064 20.8413 8.10218 20.9993 8.5 20.9993C8.89782 20.9993 9.27936 20.8413 9.56066 20.56C9.84196 20.2787 10 19.8972 10 19.4993V14.9993M7 14.9993H10" stroke="#4A77EA" stroke-width="2" stroke-linecap="round" stroke-linejoin="round"/>
</svg>
