<svg width="28" height="35" viewBox="0 0 24 30" fill="none" xmlns="http://www.w3.org/2000/svg">
<path d="M12 0C5.66748 0 0.515625 5.15186 0.515625 11.4844C0.515625 13.5114 1.05117 15.5042 2.06432 17.2474C2.30051 17.6538 2.56453 18.0498 2.84918 18.4245L11.501 30H12.4989L21.1508 18.4246C21.4354 18.0498 21.6994 17.6538 21.9357 17.2474C22.9488 15.5042 23.4844 13.5114 23.4844 11.4844C23.4844 5.15186 18.3325 0 12 0ZM12 15.293C9.89994 15.293 8.19141 13.5844 8.19141 11.4844C8.19141 9.38432 9.89994 7.67578 12 7.67578C14.1001 7.67578 15.8086 9.38432 15.8086 11.4844C15.8086 13.5844 14.1001 15.293 12 15.293Z" fill="#D6342B"/>
</svg>
