<?xml version="1.0" encoding="UTF-8"?>
<svg fill="none" viewBox="0 0 24 24" xmlns="http://www.w3.org/2000/svg">
<path d="m13 14.999v-8m0 8 5.504 3.145c0.1521 0.0869 0.3243 0.1323 0.4994 0.1317s0.347-0.0472 0.4985-0.135c0.1514-0.0879 0.2772-0.214 0.3646-0.3658 0.0874-0.1517 0.1334-0.3237 0.1335-0.4989v-12.554c-1e-4 -0.17511-0.0461-0.34715-0.1335-0.49888-0.0874-0.15174-0.2132-0.27786-0.3646-0.36574-0.1515-0.08789-0.3234-0.13446-0.4985-0.13505s-0.3473 0.04482-0.4994 0.13167l-5.504 3.145m0 8h-3m3-8h-6c-1.0609 0-2.0783 0.42143-2.8284 1.1716-0.75014 0.75014-1.1716 1.7676-1.1716 2.8284v0c0 1.0609 0.42143 2.0783 1.1716 2.8285 0.75015 0.7501 1.7676 1.1715 2.8284 1.1715m0 0v4.5c0 0.3979 0.15804 0.7794 0.43934 1.0607s0.66284 0.4393 1.0607 0.4393 0.77936-0.158 1.0607-0.4393 0.43934-0.6628 0.43934-1.0607v-4.5m-3 0h3" stroke="#4A77EA" stroke-linecap="round" stroke-linejoin="round" stroke-width="2"/>
</svg>
