<?xml version="1.0" encoding="UTF-8"?>
<svg version="1.1" viewBox="0 0 256 256" xml:space="preserve" xmlns="http://www.w3.org/2000/svg">


<g transform="translate(1.4066 1.4066) scale(2.81)" fill="#d60000" stroke-linecap="round">
	<path d="m11 90c-2.815 0-5.63-1.074-7.778-3.222-4.295-4.296-4.295-11.261 0-15.557l68-68c4.297-4.296 11.26-4.296 15.557 0 4.296 4.296 4.296 11.261 0 15.557l-68 68c-2.149 2.148-4.964 3.222-7.779 3.222z"/>
	<path d="m79 90c-2.815 0-5.63-1.074-7.778-3.222l-68-68c-4.295-4.296-4.295-11.261 0-15.557 4.296-4.296 11.261-4.296 15.557 0l68 68c4.296 4.296 4.296 11.261 0 15.557-2.149 2.148-4.964 3.222-7.779 3.222z"/>
</g>
</svg>
