<?xml version="1.0" encoding="UTF-8"?>
<svg fill="none" viewBox="0 0 32 32" xmlns="http://www.w3.org/2000/svg">
<g clip-path="url(#a)" opacity=".2">
<path d="m2 16c0 3.713 1.475 7.274 4.1005 9.8995 2.6255 2.6255 6.1865 4.1005 9.8995 4.1005s7.274-1.475 9.8995-4.1005 4.1005-6.1865 4.1005-9.8995-1.475-7.274-4.1005-9.8995c-2.6255-2.6255-6.1865-4.1005-9.8995-4.1005s-7.274 1.475-9.8995 4.1005c-2.6255 2.6255-4.1005 6.1865-4.1005 9.8995zm30 0c0 4.2435-1.6857 8.3131-4.6863 11.314s-7.0702 4.6863-11.314 4.6863-8.3131-1.6857-11.314-4.6863-4.6863-7.0702-4.6863-11.314 1.6857-8.3131 4.6863-11.314 7.0702-4.6863 11.314-4.6863 8.3131 1.6857 11.314 4.6863 4.6863 7.0702 4.6863 11.314zm-23-1c-0.26522 0-0.51957 0.1054-0.70711 0.2929-0.18753 0.1875-0.29289 0.4419-0.29289 0.7071s0.10536 0.5196 0.29289 0.7071c0.18754 0.1875 0.44189 0.2929 0.70711 0.2929h11.586l-4.294 4.292c-0.093 0.093-0.1667 0.2034-0.217 0.3248-0.0504 0.1215-0.0763 0.2517-0.0763 0.3832s0.0259 0.2617 0.0763 0.3832c0.0503 0.1214 0.124 0.2318 0.217 0.3248s0.2034 0.1667 0.3248 0.217c0.1215 0.0504 0.2517 0.0763 0.3832 0.0763s0.2617-0.0259 0.3832-0.0763c0.1214-0.0503 0.2318-0.124 0.3248-0.217l6-6c0.0931-0.0929 0.167-0.2032 0.2174-0.3247s0.0764-0.2518 0.0764-0.3833-0.026-0.2618-0.0764-0.3833-0.1243-0.2318-0.2174-0.3247l-6-6c-0.093-0.09298-0.2034-0.16673-0.3248-0.21705-0.1215-0.05032-0.2517-0.07621-0.3832-0.07621s-0.2617 0.02589-0.3832 0.07621c-0.1214 0.05032-0.2318 0.12407-0.3248 0.21705s-0.1667 0.20335-0.217 0.32483c-0.0504 0.12148-0.0763 0.25168-0.0763 0.38317 0 0.1315 0.0259 0.2617 0.0763 0.3832 0.0503 0.1214 0.124 0.2318 0.217 0.3248l4.294 4.292h-11.586z" clip-rule="evenodd" fill="#000" fill-rule="evenodd"/>
</g>
<defs>
<clipPath id="a">
<rect width="32" height="32" fill="#fff"/>
</clipPath>
</defs>
</svg>
