<?xml version="1.0" encoding="UTF-8"?>
<svg fill="none" viewBox="0 0 32 32" xmlns="http://www.w3.org/2000/svg">
<path d="m16 2c-7.728 0-14 6.272-14 14s6.272 14 14 14 14-6.272 14-14-6.272-14-14-14zm6.496 9.52c-0.21 2.212-1.12 7.588-1.582 10.066-0.196 1.05-0.588 1.4-0.952 1.442-0.812 0.07-1.428-0.532-2.212-1.05-1.232-0.812-1.932-1.316-3.122-2.1-1.386-0.91-0.49-1.414 0.308-2.226 0.21-0.21 3.794-3.472 3.864-3.766 0.0097-0.0445 0.0084-0.0908-0.0038-0.1347s-0.0349-0.0842-0.0662-0.1173c-0.084-0.07-0.196-0.042-0.294-0.028-0.126 0.028-2.086 1.33-5.908 3.906-0.56 0.378-1.064 0.574-1.512 0.56-0.504-0.014-1.456-0.28-2.17-0.518-0.882-0.28-1.568-0.434-1.512-0.924 0.028-0.252 0.378-0.504 1.036-0.77 4.088-1.778 6.804-2.954 8.162-3.514 3.892-1.624 4.69-1.904 5.222-1.904 0.112 0 0.378 0.028 0.546 0.168 0.14 0.112 0.182 0.266 0.196 0.378-0.014 0.084 0.014 0.336 0 0.532z" fill="#C5D5FE"/>
</svg>
