<?xml version="1.0" encoding="UTF-8"?>
<svg fill="none" viewBox="0 0 32 33" xmlns="http://www.w3.org/2000/svg">
<path d="m16 2.3867c-7.7312 0-14 6.2688-14 14 0 7.7313 6.2688 14 14 14 7.7313 0 14-6.2687 14-14 0-7.7312-6.2687-14-14-14zm6.7281 10.553c0.0094 0.1469 0.0094 0.3 0.0094 0.45 0 4.5875-3.4938 9.8719-9.8781 9.8719-1.9688 0-3.7938-0.5719-5.3313-1.5562 0.28125 0.0312 0.55001 0.0437 0.83751 0.0437 1.625 0 3.1188-0.55 4.3094-1.4812-1.525-0.0313-2.8062-1.0313-3.2438-2.4063 0.53437 0.0781 1.0156 0.0781 1.5656-0.0625-0.7853-0.1595-1.491-0.586-1.9975-1.2069-0.50644-0.6209-0.78228-1.3981-0.78068-2.1993v-0.0438c0.45937 0.2594 1 0.4188 1.5656 0.4406-0.4755-0.3168-0.86545-0.7462-1.1353-1.2499-0.26984-0.5037-0.41121-1.0661-0.4116-1.6376 0-0.6468 0.16875-1.2375 0.47188-1.75 0.87157 1.073 1.9591 1.9505 3.1921 2.5756 1.2329 0.625 2.5835 0.9837 3.9641 1.0526-0.4906-2.3594 1.2719-4.2688 3.3907-4.2688 1 0 1.8999 0.41875 2.5343 1.0938 0.7844-0.1469 1.5344-0.4407 2.2031-0.83441-0.2593 0.80311-0.8031 1.4812-1.5249 1.9094 0.7-0.075 1.375-0.2688 2-0.5407-0.4719 0.6938-1.0626 1.3094-1.7407 1.8z" fill="#4A77EA"/>
</svg>
