<?xml version="1.0" encoding="UTF-8"?>
<svg fill="none" viewBox="0 0 32 32" xmlns="http://www.w3.org/2000/svg">
<path d="m16 2c-7.7312 0-14 6.2688-14 14 0 7.7313 6.2688 14 14 14 7.7313 0 14-6.2687 14-14 0-7.7312-6.2687-14-14-14zm-1.3875 21c-3.5781 0-7.2375-1.7375-7.2375-4.5969 0-1.4937 0.94375-3.2218 2.5719-4.8531 2.1718-2.175 4.7062-3.1688 5.6593-2.2125 0.4219 0.4219 0.4626 1.15 0.1907 2.0187-0.1407 0.4375 0.4093 0.1969 0.4093 0.1969 1.7563-0.7375 3.2875-0.7812 3.8469 0.0219 0.3 0.4281 0.2688 1.025-0.0062 1.7219-0.1281 0.3187 0.0406 0.3687 0.2812 0.4406 0.9907 0.3062 2.0907 1.05 2.0907 2.3594 0.0062 2.1718-3.1157 4.9031-7.8063 4.9031zm6.4781-9.0875c0.0592-0.1818 0.0696-0.3759 0.0301-0.5629s-0.1275-0.3604-0.2551-0.5027c-0.1277-0.1419-0.2906-0.2476-0.4722-0.3063s-0.3756-0.0684-0.5622-0.0281c-0.0732 0.0156-0.1488 0.0166-0.2225 3e-3 -0.0736-0.0136-0.1438-0.0416-0.2067-0.0824-0.0628-0.0408-0.117-0.0935-0.1594-0.1552s-0.0723-0.1312-0.0879-0.2045c-0.0156-0.0732-0.0166-0.1488-3e-3 -0.2225 0.0136-0.0736 0.0416-0.1439 0.0824-0.2067s0.0935-0.117 0.1552-0.1594c0.0617-0.0425 0.1312-0.0723 0.2045-0.0879 0.7531-0.1594 1.5656 0.0719 2.1156 0.6844 0.5531 0.6125 0.7 1.4468 0.4656 2.1812-0.0228 0.0711-0.0594 0.137-0.1078 0.194-0.0483 0.0569-0.1075 0.1037-0.174 0.1376-0.0665 0.034-0.139 0.0545-0.2135 0.0604-0.0745 0.0058-0.1493-0.0032-0.2203-0.0264-0.0713-0.0226-0.1374-0.0591-0.1946-0.1074-0.0571-0.0482-0.1042-0.1073-0.1384-0.1738-0.0343-0.0665-0.0551-0.1391-0.0612-0.2136-0.0062-0.0746 0.0025-0.1496 0.0254-0.2208zm3.3125 1.0719c-0.0262 0.0828-0.0686 0.1596-0.1247 0.226-0.056 0.0664-0.1246 0.1211-0.2019 0.1609-0.0772 0.0397-0.1616 0.0639-0.2482 0.0709-0.0866 0.0071-0.1737-3e-3 -0.2564-0.0297-0.167-0.0543-0.3056-0.1727-0.3853-0.3292s-0.094-0.3382-0.0397-0.5052c0.3437-1.0687 0.125-2.2875-0.6781-3.1812-0.382-0.4236-0.8686-0.7393-1.4111-0.9154-0.5424-0.176-1.1217-0.2063-1.6796-0.0877-0.0849 0.0181-0.1726 0.0193-0.2581 0.0035-0.0854-0.0158-0.1669-0.0482-0.2397-0.0955-0.0729-0.0474-0.1357-0.1086-0.1849-0.1802-0.0491-0.0716-0.0837-0.15223-0.1016-0.23723-0.0185-0.08475-0.0201-0.17233-0.0046-0.25769 0.0154-0.08537 0.0476-0.16683 0.0946-0.23972 0.0471-0.07289 0.1081-0.13576 0.1795-0.18501s0.1518-0.08389 0.2367-0.10195c1.5438-0.32812 3.2125 0.15 4.3469 1.4094 1.1343 1.2562 1.4406 2.9718 0.9562 4.475zm-10.453 0.1906c-2.8562 0.2813-5.0219 2.0344-4.8344 3.9125 0.18437 1.8781 2.65 3.1719 5.5063 2.8906 2.8562-0.2843 5.0218-2.0343 4.8343-3.9156-0.1843-1.8781-2.65-3.1719-5.5062-2.8875zm2.5062 4.4281c-0.5843 1.3219-2.2593 2.025-3.6812 1.5657-1.3719-0.4438-1.9531-1.8032-1.3531-3.0251 0.5906-1.2 2.125-1.8781 3.4843-1.525 1.4063 0.3657 2.125 1.6938 1.55 2.9844zm-2.9062-1.0062c-0.4438-0.1844-1.0125 0.0062-1.2875 0.4343-0.275 0.4313-0.1469 0.9438 0.2906 1.1438 0.4469 0.2031 1.0375 0.0094 1.3125-0.4313 0.275-0.4468 0.1313-0.9562-0.3156-1.1468zm1.0906-0.4532c-0.1687-0.0687-0.3812 0.0157-0.4812 0.1813-0.0969 0.1688-0.0438 0.3594 0.1281 0.4313 0.1719 0.0718 0.3937-0.0094 0.4937-0.1813 0.0938-0.175 0.0313-0.3688-0.1406-0.4313z" fill="#C5D5FE"/>
</svg>
