<?xml version="1.0" encoding="UTF-8"?>
<svg fill="none" viewBox="0 0 24 24" xmlns="http://www.w3.org/2000/svg">
<path d="m19.05 4.91c-0.9168-0.92608-2.0088-1.6603-3.2123-2.16-1.2036-0.49962-2.4945-0.75459-3.7977-0.75005-5.46 0-9.91 4.45-9.91 9.91 0 1.75 0.46 3.45 1.32 4.95l-1.4 5.14 5.25-1.38c1.45 0.79 3.08 1.21 4.74 1.21 5.46 0 9.9101-4.45 9.9101-9.91 0-2.65-1.0301-5.14-2.9001-7.01zm-7.01 15.24c-1.48 0-2.93-0.4-4.2-1.15l-0.3-0.18-3.12 0.82 0.83-3.04-0.2-0.31c-0.82225-1.313-1.2589-2.8308-1.26-4.38 0-4.54 3.7-8.24 8.24-8.24 2.2 0 4.27 0.86 5.82 2.42 0.7675 0.76396 1.3757 1.6727 1.7894 2.6734 0.4137 1.0008 0.6247 2.0737 0.6206 3.1566 0.0201 4.54-3.68 8.23-8.22 8.23zm4.52-6.16c-0.25-0.12-1.47-0.72-1.69-0.81-0.23-0.08-0.39-0.12-0.56 0.12-0.17 0.25-0.64 0.81-0.78 0.97-0.14 0.17-0.29 0.19-0.54 0.06-0.25-0.12-1.05-0.39-1.99-1.23-0.74-0.66-1.23-1.47-1.38-1.72-0.14-0.25-0.02-0.38 0.11-0.51 0.11-0.11 0.25-0.29 0.36995-0.43 0.12-0.14 0.17-0.25 0.25-0.41 0.08-0.17 0.04-0.31-0.02-0.43s-0.55995-1.34-0.75995-1.84c-0.2-0.48-0.41-0.42-0.56-0.43h-0.48c-0.17 0-0.43 0.06-0.66 0.31-0.22 0.25-0.86 0.85-0.86 2.07s0.89 2.4 1.01 2.56c0.12 0.17 1.75 2.67 4.23 3.74 0.59 0.26 1.05 0.41 1.41 0.52 0.59 0.19 1.13 0.16 1.56 0.1 0.48-0.07 1.47-0.6 1.67-1.18 0.21-0.58 0.21-1.07 0.14-1.18s-0.22-0.16-0.47-0.28z" fill="#4A77EA"/>
</svg>
