<svg width="32" height="32" viewBox="0 0 32 32" fill="none" xmlns="http://www.w3.org/2000/svg">
<path d="M17.9778 15.3971L14.7024 13.8687C14.4166 13.736 14.1818 13.8848 14.1818 14.2012V17.08C14.1818 17.3965 14.4166 17.5452 14.7024 17.4125L17.9764 15.8842C18.2637 15.75 18.2637 15.5312 17.9778 15.3971ZM15.6401 1.64062C7.90805 1.64062 1.64014 7.90854 1.64014 15.6406C1.64014 23.3727 7.90805 29.6406 15.6401 29.6406C23.3722 29.6406 29.6401 23.3727 29.6401 15.6406C29.6401 7.90854 23.3722 1.64062 15.6401 1.64062ZM15.6401 21.3281C8.47389 21.3281 8.34847 20.6821 8.34847 15.6406C8.34847 10.5992 8.47389 9.95312 15.6401 9.95312C22.8064 9.95312 22.9318 10.5992 22.9318 15.6406C22.9318 20.6821 22.8064 21.3281 15.6401 21.3281Z" fill="#C5D5FE"/>
</svg>
